<?xml version="1.0" encoding="UTF-8" standalone="no"?>
<svg
   xmlns:dc="http://purl.org/dc/elements/1.1/"
   xmlns:cc="http://web.resource.org/cc/"
   xmlns:rdf="http://www.w3.org/1999/02/22-rdf-syntax-ns#"
   xmlns:svg="http://www.w3.org/2000/svg"
   xmlns="http://www.w3.org/2000/svg"
   xmlns:sodipodi="http://sodipodi.sourceforge.net/DTD/sodipodi-0.dtd"
   xmlns:inkscape="http://www.inkscape.org/namespaces/inkscape"
   width="53.349663"
   height="46.771961"
   id="svg2"
   sodipodi:version="0.32"
   inkscape:version="0.45.1"
   sodipodi:docname="warning.svg"
   inkscape:output_extension="org.inkscape.output.svg.inkscape"
   sodipodi:docbase="/home/thomas/projects/hg/ramses-doc/tex.hg/tex_oowriter/img"
   version="1.0">
  <metadata
     id="metadata23">
    <rdf:RDF>
      <cc:Work
         rdf:about="">
        <dc:format>image/svg+xml</dc:format>
        <dc:type
           rdf:resource="http://purl.org/dc/dcmitype/StillImage" />
      </cc:Work>
    </rdf:RDF>
  </metadata>
  <defs
     id="defs21" />
  <sodipodi:namedview
     inkscape:window-height="622"
     inkscape:window-width="872"
     inkscape:pageshadow="2"
     inkscape:pageopacity="0.0"
     guidetolerance="10.0"
     gridtolerance="10.0"
     objecttolerance="10.0"
     borderopacity="1.0"
     bordercolor="#666666"
     pagecolor="#ffffff"
     id="base"
     inkscape:zoom="4.3508973"
     inkscape:cx="30.124991"
     inkscape:cy="16.478911"
     inkscape:window-x="194"
     inkscape:window-y="66"
     inkscape:current-layer="svg2"
     inkscape:document-units="mm" />
  <g
     id="g3147">
    <g
       id="g4"
       style="fill:#000000;fill-rule:evenodd;stroke:#000000;stroke-width:0pt;stroke-linecap:butt;stroke-linejoin:miter;stroke-dasharray:none"
       transform="translate(0.4252013,0.4249813)" />
    <path
       d="M 26.674881,2.1259813 C 26.674881,2.1259813 51.223681,44.645981 51.223681,44.645981 C 51.223681,44.645981 2.1259813,44.645981 2.1259813,44.645981 C 2.1259813,44.645981 26.674881,2.1259813 26.674881,2.1259813 z "
       id="path10"
       style="fill:#ffff00;fill-rule:evenodd;stroke:#000000;stroke-width:3;stroke-linecap:round;stroke-linejoin:round;stroke-dasharray:none;stroke-miterlimit:4" />
    <g
       id="g12"
       style="fill:#000000;fill-rule:evenodd;stroke:#000000;stroke-width:1.64976006pt;stroke-linecap:butt;stroke-linejoin:round;stroke-dasharray:none"
       transform="translate(24.273431,13.643981)">
      <path
         id="path14"
         d="M 2.4014,18.161 C 2.4014,18.161 0,6.156 0,3.756 C 0,1.354 1.2002,0 2.4014,0 C 3.6016,0 4.8018,1.354 4.8018,3.756 C 4.8018,6.156 2.4014,18.161 2.4014,18.161 z " />
    </g>
    <g
       id="g16"
       style="fill:#000000;fill-rule:evenodd;stroke:#000000;stroke-width:1.64976006pt;stroke-linecap:round;stroke-linejoin:round;stroke-dasharray:none"
       transform="translate(24.690431,35.026981)">
      <path
         id="path18"
         d="M 3.9688,1.984 C 3.9688,3.079 3.0791,3.969 1.9844,3.969 C 0.8887,3.969 0,3.079 0,1.984 C 0,0.888 0.8887,0 1.9844,0 C 3.0791,0 3.9688,0.888 3.9688,1.984 z " />
    </g>
  </g>
</svg>
