<svg width="245" height="245" xmlns="http://www.w3.org/2000/svg" xmlns:xlink="http://www.w3.org/1999/xlink" xml:space="preserve" overflow="hidden"><defs><clipPath id="clip0"><rect x="96" y="696" width="245" height="245"/></clipPath><clipPath id="clip1"><rect x="96" y="696" width="245" height="245"/></clipPath></defs><g clip-path="url(#clip0)" transform="translate(-96 -696)"><g clip-path="url(#clip1)"><path d="M217.048 940.793C215.149 940.423 212.26 937.283 210.489 933.665 208.46 929.519 207.883 926.783 208.952 926.373 209.379 926.209 211.486 927.041 214.307 928.488 219.687 931.247 221.661 931.662 224.403 930.614 225.457 930.213 226.516 930.006 226.758 930.155 228.582 931.282 224.09 938.741 220.585 940.403 219.135 941.092 218.784 941.131 217.048 940.793ZM196.032 937.896C187.059 935.045 176.467 927.841 170.635 920.62 164.935 913.562 162.15 907.566 159.281 896.172 156.81 886.361 154.375 880.848 149.916 874.963 146.665 870.673 139.131 865.22 133.189 862.856 127.323 860.522 124.433 860.081 114.934 860.07 110.081 860.065 105.337 859.88 104.394 859.662 102.262 859.169 101.178 857.881 101.186 855.854 101.193 853.938 105.863 840.006 113.776 818.289 115.323 814.046 118.606 804.98 121.072 798.143 123.538 791.307 126.453 783.302 127.55 780.355 128.646 777.409 130.185 773.165 130.969 770.926 132.954 765.255 138.292 750.705 139.618 747.351 144.98 733.793 153.96 723.174 167.617 714.242 178.139 707.36 190.107 703.033 202.336 701.69 204.628 701.438 205.392 701.142 206.641 700.017 210.152 696.857 215.961 695.358 221.213 696.259 224.514 696.825 227.924 698.355 230.08 700.237 230.842 700.902 232.095 701.536 232.867 701.647 233.637 701.758 235.908 702.074 237.913 702.349 251.134 704.162 265.397 710.541 276.255 719.498 280.339 722.867 286.576 729.29 289.565 733.206 293.722 738.655 295.334 742.218 301.784 760.21 303.856 765.986 306.716 773.894 308.142 777.784 309.569 781.673 313.047 791.318 315.87 799.215 318.695 807.112 322.678 818.203 324.722 823.861 331.413 842.383 332.271 844.804 333.965 849.952 335.741 855.347 335.968 856.953 335.104 857.983 333.564 859.819 333.316 859.857 321.536 860.108L310.136 860.351 305.803 861.847C294.965 865.589 287.028 872.51 282.026 882.583 280.388 885.88 279.451 888.65 277.964 894.585 276.901 898.828 275.534 903.747 274.925 905.514 271.114 916.594 261.792 927.134 250.082 933.605 245.701 936.025 237.143 939.12 236.021 938.688 234.867 938.246 235.258 937.2 237.22 935.473 239.542 933.428 241.552 930.347 243.011 926.594L244.125 923.731 244.345 892.87 244.566 862.01 245.581 859.552C246.864 856.453 250.051 853.089 253.012 851.711L255.272 850.659 288.991 850.654C307.537 850.653 323.006 850.536 323.367 850.398 323.925 850.183 323.759 849.409 322.299 845.361 321.35 842.729 319.635 837.973 318.488 834.79 317.342 831.607 315.313 826.014 313.979 822.36 312.646 818.706 310.719 813.305 309.696 810.359 308.675 807.412 306.941 802.493 305.844 799.429 304.746 796.364 303.591 793.085 303.276 792.142 302.698 790.415 301.045 785.863 297.125 775.211 295.954 772.029 293.906 766.435 292.575 762.781 286.919 747.263 286.29 745.724 284.487 742.969 282.477 739.899 280.658 740.249 276.376 744.53 273.405 747.501 271.56 751.701 269.818 759.458 269.01 763.054 268.349 766.391 268.348 766.874 268.346 767.358 268.114 767.984 267.831 768.267 267.436 768.661 255.92 768.782 218.604 768.782 172.746 768.782 169.855 768.738 169.242 768.032 168.884 767.619 168.266 765.449 167.869 763.209 165.913 752.182 162.263 744.987 157.089 741.954 156.059 741.351 154.797 740.92 154.282 740.996 152.899 741.202 150.336 745.565 148.122 751.484 143.287 764.407 133.327 791.485 133.327 791.705 133.327 791.84 130.894 798.648 127.921 806.834 115.68 840.539 112.64 849.309 112.933 850.073 113.116 850.55 119.06 850.65 147.168 850.65 185.43 850.65 183.494 850.493 187.263 853.882 188.605 855.088 189.782 856.707 190.588 858.451L191.835 861.151 192.059 891.369C192.26 918.541 192.359 921.843 193.037 924.124 194.189 928.004 196.276 931.57 199.228 934.706 200.702 936.27 201.907 937.865 201.907 938.249 201.907 939.231 199.845 939.107 196.032 937.896ZM182.535 891.477C182.415 865.939 182.345 863.613 181.65 862.343 181.235 861.584 180.525 860.764 180.071 860.521 179.548 860.242 173.553 860.083 163.681 860.089L148.115 860.097 150.043 861.663C152.834 863.929 156.664 867.948 159.122 871.192 161.969 874.948 165.654 882.534 166.946 887.298 167.521 889.42 168.682 893.76 169.526 896.943 171.785 905.46 175.2 912.161 179.715 916.935 180.909 918.198 182.061 919.231 182.276 919.231 182.506 919.231 182.612 907.925 182.535 891.477ZM257.052 916.98C259.487 914.393 261.146 912.032 263.302 908.087 265.284 904.458 266.23 901.657 268.345 893.151 271.656 879.833 275.055 873.453 283.162 865.331L288.402 860.08 272.667 860.08 256.932 860.08 255.674 861.393 254.415 862.707 254.157 890.648C254.016 906.015 253.98 918.732 254.076 918.91 254.423 919.548 254.968 919.194 257.052 916.98ZM182.191 758.082C182.191 755.987 180.635 748.617 179.442 745.065 177.265 738.581 173.885 732.969 170.11 729.571 166.305 726.147 166.326 726.147 162.844 729.629L159.832 732.64 162.248 733.862C167.848 736.696 172.386 743.346 175.549 753.352 176.406 756.063 177.184 758.522 177.278 758.817 177.387 759.16 178.3 759.353 179.82 759.353 182.162 759.353 182.191 759.336 182.191 758.082ZM196.573 757.96C196.447 757.193 196.134 754.936 195.878 752.944 194.512 742.295 191.3 730.75 187.889 724.225 185.675 719.991 183.309 716.918 182.262 716.918 181.674 716.918 176.045 719.921 175.372 720.594 175.274 720.692 176.346 721.979 177.755 723.453 185.332 731.381 189.617 741.555 192.289 757.96 192.51 759.315 192.574 759.353 194.66 759.353L196.803 759.353ZM230.675 753.78C231.772 745.579 232.67 740.806 234.274 734.649 236.182 727.333 237.698 723.237 240.582 717.616 241.874 715.096 242.803 712.955 242.645 712.858 242.487 712.76 239.863 712.266 236.814 711.76 233.764 711.254 230.882 710.766 230.411 710.675 229.939 710.585 229.111 709.73 228.571 708.775 226.573 705.247 222.223 703.33 217.067 703.703 213.105 703.989 210.22 705.69 207.177 709.531 206.545 710.329 205.492 710.656 201.264 711.366 193.562 712.66 193.335 712.711 193.335 713.159 193.335 713.388 194.003 714.664 194.82 715.997 199.407 723.477 203.373 736.513 205.337 750.566 205.601 752.452 206.018 755.203 206.265 756.68L206.713 759.366 218.336 759.252 229.96 759.138ZM214.825 727.476C211.389 726.233 208.366 722.245 208.229 718.775 208.124 716.115 209.172 713.206 210.973 711.16 213.113 708.729 215.586 707.75 218.965 707.994 223.609 708.33 227.095 711.602 228.146 716.613 228.57 718.632 228.53 719.242 227.864 720.984 225.799 726.394 219.921 729.32 214.825 727.476ZM245.138 753.558C246.349 746.172 247.758 741.324 250.177 736.21 252.642 730.996 254.163 728.638 257.737 724.487 259.328 722.639 260.629 720.959 260.629 720.756 260.629 720.206 254.827 716.918 253.857 716.918 253.3 716.918 252.279 717.992 250.796 720.138 248.225 723.857 246.628 727.207 244.834 732.653 242.931 738.427 240.065 753.488 240.058 757.745L240.054 759.353 242.12 759.353 244.186 759.353ZM259.774 758.603C259.778 757.265 263.488 747.104 265.081 744.072 267.462 739.541 270.359 736.242 273.637 734.329 275.205 733.413 276.489 732.536 276.489 732.38 276.489 732.223 275.116 730.867 273.439 729.365L270.39 726.635 268.91 727.431C264.875 729.605 259.506 737.495 257.209 744.627 255.881 748.75 254.036 758.312 254.441 758.968 254.573 759.18 255.825 759.353 257.226 759.353 259.365 759.353 259.773 759.233 259.774 758.603ZM218.56 925.476C215.833 924.433 208.281 919.928 207.822 919.07 207.277 918.052 206.609 912.906 206.917 912.103 207.332 911.023 209.107 911.496 214.373 914.087 220.605 917.154 221.864 917.293 225.478 915.306 229.061 913.336 229.537 913.662 229.187 917.849 228.877 921.547 228.377 922.476 225.628 924.466 223.532 925.984 220.879 926.362 218.56 925.476ZM218.154 910.705C214.612 909.319 207.39 905.321 206.785 904.41 206.439 903.89 206.149 902.136 206.086 900.183 205.939 895.575 206.186 895.474 211.522 897.967 215.297 899.731 216.074 899.943 218.794 899.945 220.469 899.947 222.579 900.154 223.486 900.405 224.958 900.814 225.307 900.745 226.798 899.759 227.714 899.153 228.739 898.657 229.074 898.657 230.113 898.657 230.601 900.94 230.19 903.886 229.76 906.967 228.942 907.894 224.618 910.199 221.789 911.707 220.894 911.776 218.154 910.705ZM219.267 896.088C217.304 895.625 212.903 893.67 209.355 891.685 205.819 889.708 205.723 889.54 205.619 885.134 205.517 880.835 205.757 880.799 212.906 884.037 220.255 887.367 221.178 887.433 225.77 884.956 227.576 883.982 229.455 883.242 229.946 883.312 230.783 883.432 230.835 883.681 230.748 887.254 230.64 891.772 230.326 892.246 225.969 894.501 222.784 896.149 221.156 896.535 219.267 896.088ZM217.552 880.93C216.609 880.616 213.468 879.168 210.572 877.71 205.082 874.948 204.479 874.354 204.479 871.707 204.479 869.217 205.212 868.867 210.417 868.867 214.928 868.867 215.192 868.917 216.345 869.998 218.302 871.83 219.188 871.884 221.017 870.278 222.585 868.901 222.721 868.867 226.558 868.867 231.479 868.867 231.911 869.16 231.911 872.483 231.911 875.437 231.306 876.119 226.01 879.144 222.11 881.371 220.139 881.786 217.552 880.93ZM203.236 864.205C202.901 863.8 202.875 863.274 203.155 862.538 204.991 857.709 214.121 853.787 222.699 854.143 226.855 854.315 227.074 854.089 225.013 851.742 223.368 849.869 219.645 848.624 214.503 848.228 210.261 847.902 209.468 847.35 210.76 845.619 212.145 843.764 214.552 842.037 216.323 841.626 217.235 841.414 221.357 841.229 225.482 841.213L232.983 841.185 231.483 840.358C229.361 839.188 221.031 836.506 219.517 836.506 217.522 836.506 216.052 835.78 216.052 834.795 216.052 833.798 217.349 832.9 222.053 830.643 226.213 828.647 227.196 827.743 227.196 825.919 227.196 824.772 226.976 824.398 226.097 824.065 224.56 823.481 214.858 823.542 212.212 824.152 210.334 824.586 209.925 824.561 209.346 823.982 208.73 823.366 208.785 823.006 209.966 819.941 212.228 814.064 213.48 806.183 213.48 797.816 213.48 792.009 212.927 790.376 210.195 788.124 207.311 785.747 205.831 785.498 194.652 785.508 183.375 785.518 183.012 785.593 178.657 788.79 175.346 791.221 175.144 790.894 174.999 782.884 174.894 777.059 174.966 776.226 175.617 775.751 176.197 775.327 185.587 775.212 219.747 775.212 258.624 775.212 263.21 775.282 263.814 775.886 264.371 776.443 264.486 777.755 264.48 783.494 264.477 787.308 264.305 790.695 264.098 791.022 263.54 791.904 262.061 791.368 259.098 789.21 254.04 785.526 254.957 785.713 241.984 785.713 230.863 785.713 230.342 785.75 228.639 786.661 227.664 787.182 226.27 788.205 225.543 788.934 223.389 791.087 223.161 792.793 223.95 800.85 224.33 804.723 224.8 808.176 224.995 808.525 225.266 809.01 225.634 808.674 226.553 807.106 228.067 804.524 229.616 803.073 230.858 803.073 231.388 803.073 233.337 803.796 235.189 804.68 238.396 806.212 238.758 806.287 242.842 806.272 246.293 806.259 247.518 806.077 249.129 805.337 251.116 804.426 254.629 801.59 254.629 800.898 254.629 800.7 249.02 800.482 242.163 800.412 230.749 800.297 229.651 800.222 229.135 799.517 228.317 798.396 228.768 797.297 231.094 794.753 234.781 790.718 240.654 789.011 246.072 790.399 249.448 791.263 252.034 792.666 255.14 795.317 256.481 796.462 258.893 798.129 260.498 799.02 262.103 799.912 263.568 800.851 263.753 801.107 264.729 802.456 261.945 817.086 259.136 825.361 255.816 835.139 250.719 844.476 244.746 851.722 241.646 855.48 234.81 862.217 232.602 863.685L230.935 864.795 217.331 864.795C206.295 864.795 203.634 864.684 203.237 864.205ZM181.337 799.958C180.75 799.655 180.205 799.074 180.126 798.666 179.891 797.445 184.597 793.126 187.968 791.47 190.622 790.165 191.348 790 194.406 790 197.454 790 198.193 790.167 200.788 791.444 203.955 793.003 206.618 795.419 207.49 797.525 207.96 798.661 207.936 798.942 207.314 799.565 206.678 800.202 205.172 800.3 194.499 800.398 185.311 800.482 182.148 800.376 181.337 799.958Z" fill="#3061F3" fill-rule="nonzero" fill-opacity="1"/></g></g></svg>
