<svg width="990" height="986" xmlns="http://www.w3.org/2000/svg" xmlns:xlink="http://www.w3.org/1999/xlink" xml:space="preserve" overflow="hidden"><defs><linearGradient x1="1366" y1="1367" x2="383" y2="2350" gradientUnits="userSpaceOnUse" spreadMethod="reflect" id="fill0"><stop offset="0" stop-color="#3061F3" stop-opacity="1"/><stop offset="0.0138889" stop-color="#2F60F2" stop-opacity="1"/><stop offset="0.0277778" stop-color="#2F60F2" stop-opacity="1"/><stop offset="0.0416667" stop-color="#2F60F2" stop-opacity="1"/><stop offset="0.0555556" stop-color="#2F60F2" stop-opacity="1"/><stop offset="0.0694444" stop-color="#2F60F2" stop-opacity="1"/><stop offset="0.0833333" stop-color="#2F60F2" stop-opacity="1"/><stop offset="0.0972222" stop-color="#2F60F2" stop-opacity="1"/><stop offset="0.111111" stop-color="#2F60F1" stop-opacity="1"/><stop offset="0.125" stop-color="#2F60F1" stop-opacity="1"/><stop offset="0.138889" stop-color="#2E60F1" stop-opacity="1"/><stop offset="0.152778" stop-color="#2E60F0" stop-opacity="1"/><stop offset="0.166667" stop-color="#2E5FF0" stop-opacity="1"/><stop offset="0.180556" stop-color="#2E5FF0" stop-opacity="1"/><stop offset="0.194444" stop-color="#2D5FEF" stop-opacity="1"/><stop offset="0.208333" stop-color="#2D5FEF" stop-opacity="1"/><stop offset="0.222222" stop-color="#2D5FEE" stop-opacity="1"/><stop offset="0.236111" stop-color="#2C5FEE" stop-opacity="1"/><stop offset="0.25" stop-color="#2C5EED" stop-opacity="1"/><stop offset="0.263889" stop-color="#2C5EEC" stop-opacity="1"/><stop offset="0.277778" stop-color="#2B5EEC" stop-opacity="1"/><stop offset="0.291667" stop-color="#2B5EEB" stop-opacity="1"/><stop offset="0.305556" stop-color="#2A5DEB" stop-opacity="1"/><stop offset="0.319444" stop-color="#2A5DEA" stop-opacity="1"/><stop offset="0.333333" stop-color="#295DE9" stop-opacity="1"/><stop offset="0.347222" stop-color="#295DE8" stop-opacity="1"/><stop offset="0.361111" stop-color="#285CE8" stop-opacity="1"/><stop offset="0.375" stop-color="#285CE7" stop-opacity="1"/><stop offset="0.388889" stop-color="#275CE6" stop-opacity="1"/><stop offset="0.402778" stop-color="#275BE5" stop-opacity="1"/><stop offset="0.416667" stop-color="#265BE4" stop-opacity="1"/><stop offset="0.430556" stop-color="#265BE3" stop-opacity="1"/><stop offset="0.444444" stop-color="#255AE3" stop-opacity="1"/><stop offset="0.458333" stop-color="#245AE2" stop-opacity="1"/><stop offset="0.472222" stop-color="#2459E1" stop-opacity="1"/><stop offset="0.486111" stop-color="#2359E0" stop-opacity="1"/><stop offset="0.5" stop-color="#2259DF" stop-opacity="1"/><stop offset="0.513889" stop-color="#2258DE" stop-opacity="1"/><stop offset="0.527778" stop-color="#2158DC" stop-opacity="1"/><stop offset="0.541667" stop-color="#2057DB" stop-opacity="1"/><stop offset="0.555556" stop-color="#2057DA" stop-opacity="1"/><stop offset="0.569444" stop-color="#1F56D9" stop-opacity="1"/><stop offset="0.583333" stop-color="#1E56D8" stop-opacity="1"/><stop offset="0.597222" stop-color="#1D55D7" stop-opacity="1"/><stop offset="0.611111" stop-color="#1C55D6" stop-opacity="1"/><stop offset="0.625" stop-color="#1C54D4" stop-opacity="1"/><stop offset="0.638889" stop-color="#1B54D3" stop-opacity="1"/><stop offset="0.652778" stop-color="#1A53D2" stop-opacity="1"/><stop offset="0.666667" stop-color="#1953D0" stop-opacity="1"/><stop offset="0.680556" stop-color="#1852CF" stop-opacity="1"/><stop offset="0.694444" stop-color="#1752CE" stop-opacity="1"/><stop offset="0.708333" stop-color="#1651CC" stop-opacity="1"/><stop offset="0.722222" stop-color="#1551CB" stop-opacity="1"/><stop offset="0.736111" stop-color="#1450C9" stop-opacity="1"/><stop offset="0.75" stop-color="#1450C8" stop-opacity="1"/><stop offset="0.763889" stop-color="#134FC6" stop-opacity="1"/><stop offset="0.777778" stop-color="#124EC5" stop-opacity="1"/><stop offset="0.791667" stop-color="#114EC3" stop-opacity="1"/><stop offset="0.805556" stop-color="#0F4DC2" stop-opacity="1"/><stop offset="0.819444" stop-color="#0E4DC0" stop-opacity="1"/><stop offset="0.833333" stop-color="#0D4CBF" stop-opacity="1"/><stop offset="0.847222" stop-color="#0C4BBD" stop-opacity="1"/><stop offset="0.861111" stop-color="#0B4BBB" stop-opacity="1"/><stop offset="0.875" stop-color="#0A4ABA" stop-opacity="1"/><stop offset="0.888889" stop-color="#0949B8" stop-opacity="1"/><stop offset="0.902778" stop-color="#0849B6" stop-opacity="1"/><stop offset="0.916667" stop-color="#0748B4" stop-opacity="1"/><stop offset="0.930556" stop-color="#0647B3" stop-opacity="1"/><stop offset="0.944444" stop-color="#0446B1" stop-opacity="1"/><stop offset="0.958333" stop-color="#0346AF" stop-opacity="1"/><stop offset="0.972222" stop-color="#0245AD" stop-opacity="1"/><stop offset="0.986111" stop-color="#0144AB" stop-opacity="1"/><stop offset="1" stop-color="#0044AA" stop-opacity="1"/></linearGradient></defs><g transform="translate(-380 -1365)"><g><path d="M383 1858.5C383 1587.05 603.052 1367 874.5 1367 1145.95 1367 1366 1587.05 1366 1858.5 1366 2129.95 1145.95 2350 874.5 2350 603.052 2350 383 2129.95 383 1858.5Z" fill="url(#fill0)" fill-rule="evenodd"/><g><g><g><path d="M416.997 843.287C410.455 842.012 400.505 831.196 394.404 818.73 387.414 804.45 385.427 795.023 389.107 793.613 390.578 793.048 397.839 795.913 407.555 800.897 426.089 810.4 432.888 811.831 442.336 808.223 445.965 806.839 449.616 806.125 450.447 806.64 456.731 810.523 441.256 836.218 429.182 841.945 424.186 844.316 422.979 844.451 416.997 843.287ZM344.598 833.306C313.687 823.486 277.201 798.669 257.111 773.792 237.475 749.48 227.88 728.823 217.996 689.573 209.485 655.775 201.097 636.781 185.735 616.508 174.534 601.73 148.581 582.947 128.114 574.802 107.903 566.763 97.9479 565.244 65.2273 565.206 48.5059 565.189 32.1666 564.552 28.9182 563.8 21.5729 562.1 17.8376 557.664 17.8648 550.68 17.8906 544.08 33.9768 496.086 61.2381 421.273 66.5646 406.655 77.8742 375.425 86.3699 351.874 94.866 328.322 104.908 300.747 108.686 290.595 112.463 280.444 117.763 265.826 120.464 258.111 127.302 238.576 145.692 188.454 150.261 176.899 168.729 130.194 199.666 93.6106 246.714 62.8404 282.962 39.1332 324.189 24.2289 366.317 19.6021 374.211 18.735 376.843 17.7123 381.147 13.8378 393.24 2.95057 413.255-2.2113 431.347 0.89099 442.716 2.8408 454.464 8.11219 461.892 14.5973 464.516 16.8864 468.833 19.0719 471.492 19.454 474.146 19.8362 481.97 20.9233 488.874 21.8701 534.421 28.1165 583.554 50.0935 620.96 80.9484 635.03 92.5539 656.514 114.681 666.81 128.172 681.133 146.943 686.687 159.216 708.905 221.196 716.041 241.093 725.895 268.336 730.807 281.736 735.723 295.136 747.704 328.359 757.431 355.565 767.162 382.771 780.881 420.977 787.925 440.467 810.974 504.273 813.928 512.616 819.764 530.348 825.883 548.933 826.664 554.466 823.689 558.015 818.384 564.341 817.528 564.471 776.948 565.336L737.677 566.172 722.751 571.325C685.412 584.217 658.071 608.06 640.841 642.761 635.198 654.117 631.97 663.658 626.847 684.104 623.184 698.722 618.475 715.665 616.377 721.755 603.249 759.925 571.135 796.234 530.796 818.524 515.705 826.862 486.224 837.522 482.359 836.037 478.383 834.513 479.73 830.909 486.49 824.959 494.487 817.916 501.412 807.303 506.438 794.373L510.274 784.511 511.033 678.196 511.793 571.886 515.291 563.421C519.71 552.744 530.69 541.156 540.89 536.408L548.676 532.783 664.836 532.766C728.722 532.762 782.012 532.361 783.257 531.885 785.177 531.146 784.608 528.479 779.577 514.532 776.307 505.467 770.399 489.081 766.449 478.117 762.499 467.154 755.511 447.885 750.915 435.297 746.324 422.709 739.686 404.105 736.162 393.954 732.643 383.802 726.671 366.858 722.89 356.301 719.109 345.743 715.13 334.448 714.045 331.199 712.053 325.249 706.36 309.569 692.856 272.874 688.822 261.91 681.766 242.641 677.179 230.053 657.695 176.596 655.531 171.294 649.319 161.802 642.394 151.226 636.127 152.433 621.378 167.18 611.14 177.417 604.785 191.883 598.784 218.607 596.003 230.993 593.724 242.49 593.72 244.155 593.716 245.82 592.914 247.979 591.939 248.953 590.58 250.311 550.908 250.725 422.359 250.725 264.384 250.725 254.423 250.574 252.311 248.141 251.078 246.72 248.949 239.245 247.58 231.53 240.842 193.54 228.271 168.754 210.444 158.306 206.899 156.229 202.548 154.744 200.776 155.007 196.011 155.715 187.182 170.746 179.555 191.135 162.9 235.654 128.587 328.938 128.587 329.695 128.587 330.16 120.208 353.613 109.966 381.812 67.7947 497.922 57.3228 528.133 58.3326 530.766 58.9631 532.408 79.4394 532.754 176.267 532.754 308.077 532.754 301.409 532.214 314.392 543.886 319.016 548.043 323.07 553.617 325.845 559.627L330.14 568.928 330.913 673.027C331.608 766.63 331.947 778.008 334.281 785.865 338.251 799.23 345.44 811.514 355.611 822.318 360.687 827.706 364.84 833.201 364.84 834.522 364.84 837.906 357.734 837.48 344.598 833.306ZM298.104 673.398C297.691 585.424 297.448 577.41 295.056 573.034 293.627 570.422 291.179 567.594 289.616 566.759 287.815 565.796 267.163 565.248 233.152 565.269L179.529 565.298 186.174 570.692C195.789 578.499 208.98 592.344 217.449 603.519 227.256 616.458 239.953 642.592 244.401 659.004 246.383 666.313 250.383 681.264 253.29 692.228 261.072 721.569 272.836 744.653 288.39 761.098 292.504 765.449 296.473 769.006 297.211 769.006 298.005 769.006 298.37 730.06 298.104 673.398ZM554.807 761.254C563.197 752.341 568.911 744.21 576.338 730.617 583.166 718.117 586.424 708.466 593.712 679.167 605.118 633.287 616.825 611.309 644.753 583.326L662.806 565.239 608.6 565.239 554.394 565.239 550.06 569.763 545.722 574.287 544.836 670.541C544.35 723.481 544.224 767.289 544.557 767.901 545.751 770.099 547.629 768.88 554.807 761.254ZM296.917 213.866C296.917 206.648 291.557 181.262 287.449 169.025 279.951 146.686 268.307 127.355 255.302 115.65 242.194 103.853 242.265 103.853 230.269 115.848L219.896 126.222 228.217 130.432C247.508 140.192 263.144 163.103 274.039 197.571 276.991 206.91 279.671 215.382 279.994 216.397 280.371 217.581 283.514 218.243 288.75 218.243 296.819 218.243 296.917 218.187 296.917 213.866ZM346.464 213.444C346.028 210.805 344.952 203.03 344.07 196.167 339.363 159.483 328.298 119.711 316.547 97.2338 308.92 82.6466 300.77 72.062 297.164 72.062 295.137 72.062 275.747 82.4044 273.429 84.7224 273.089 85.0613 276.784 89.4944 281.638 94.5736 307.738 121.883 322.502 156.934 331.707 213.444 332.468 218.114 332.687 218.243 339.872 218.243L347.255 218.243ZM463.943 199.048C467.719 170.795 470.813 154.351 476.341 133.142 482.911 107.94 488.136 93.8287 498.07 74.4661 502.522 65.7856 505.72 58.4086 505.176 58.0727 504.632 57.7368 495.592 56.0348 485.089 54.2911 474.581 52.547 464.656 50.8662 463.031 50.5556 461.406 50.2454 458.554 47.2986 456.693 44.007 449.81 31.8562 434.825 25.2497 417.062 26.5346 403.414 27.5219 393.475 33.3793 382.993 46.6128 380.816 49.3618 377.189 50.4872 362.625 52.9336 336.093 57.3907 335.309 57.568 335.309 59.1125 335.309 59.8991 337.611 64.2972 340.424 68.886 356.225 94.6559 369.888 139.563 376.656 187.974 377.565 194.47 379.002 203.95 379.851 209.038L381.394 218.29 421.437 217.897 461.478 217.505ZM409.34 108.431C397.505 104.148 387.091 90.4114 386.618 78.4578 386.255 69.2945 389.867 59.2737 396.071 52.225 403.442 43.8509 411.962 40.4759 423.604 41.318 439.602 42.4751 451.607 53.7472 455.228 71.0112 456.688 77.9641 456.553 80.0669 454.258 86.0686 447.143 104.706 426.895 114.785 409.34 108.431ZM513.764 198.281C517.937 172.838 522.79 156.135 531.125 138.518 539.616 120.559 544.857 112.436 557.167 98.1357 562.648 91.7673 567.13 85.9825 567.13 85.2807 567.13 83.3863 547.144 72.062 543.802 72.062 541.882 72.062 538.366 75.7604 533.256 83.1542 524.398 95.9649 518.9 107.506 512.717 126.267 506.164 146.158 496.289 198.039 496.263 212.706L496.251 218.243 503.37 218.243 510.485 218.243ZM564.184 215.659C564.197 211.05 576.979 176.049 582.465 165.605 590.669 149.995 600.649 138.63 611.942 132.038 617.344 128.886 621.766 125.864 621.766 125.325 621.766 124.785 617.036 120.112 611.258 114.939L600.755 105.534 595.657 108.278C581.756 115.766 563.26 142.946 555.348 167.513 550.773 181.717 544.418 214.659 545.815 216.919 546.266 217.647 550.579 218.243 555.407 218.243 562.775 218.243 564.18 217.83 564.184 215.659ZM422.207 790.52C412.812 786.929 386.797 771.407 385.215 768.453 383.338 764.947 381.036 747.218 382.098 744.454 383.526 740.732 389.643 742.361 407.782 751.286 429.25 761.853 433.588 762.33 446.037 755.485 458.381 748.7 460.022 749.822 458.815 764.246 457.748 776.986 456.026 780.185 446.556 787.043 439.336 792.271 430.195 793.575 422.207 790.52ZM420.807 739.635C408.607 734.862 383.728 721.088 381.642 717.953 380.45 716.159 379.451 710.116 379.235 703.389 378.728 687.514 379.581 687.168 397.96 695.755 410.966 701.832 413.643 702.562 423.013 702.571 428.781 702.575 436.053 703.288 439.175 704.153 444.248 705.563 445.45 705.326 450.586 701.929 453.743 699.841 457.271 698.131 458.427 698.131 462.006 698.131 463.685 705.997 462.271 716.147 460.79 726.76 457.971 729.954 443.075 737.892 433.331 743.087 430.246 743.328 420.807 739.635ZM424.642 689.282C417.88 687.687 402.717 680.952 390.495 674.115 378.314 667.304 377.986 666.726 377.625 651.547 377.274 636.739 378.103 636.612 402.729 647.77 428.047 659.24 431.225 659.468 447.046 650.935 453.266 647.58 459.739 645.031 461.432 645.272 464.314 645.685 464.491 646.542 464.191 658.852 463.82 674.415 462.74 676.048 447.729 683.817 436.757 689.493 431.149 690.822 424.642 689.282ZM418.735 637.064C415.487 635.983 404.667 630.995 394.69 625.974 375.775 616.458 373.699 614.411 373.699 605.291 373.699 596.716 376.223 595.509 394.156 595.509 409.696 595.509 410.605 595.682 414.577 599.404 421.319 605.718 424.372 605.903 430.672 600.371 436.074 595.628 436.542 595.509 449.759 595.509 466.711 595.509 468.2 596.518 468.2 607.967 468.2 618.141 466.116 620.492 447.873 630.911 434.436 638.583 427.646 640.014 418.735 637.064ZM369.419 579.448C368.263 578.055 368.175 576.241 369.139 573.705 375.464 557.069 406.916 543.561 436.466 544.785 450.78 545.38 451.536 544.599 444.438 536.514 438.77 530.061 425.946 525.774 408.23 524.411 393.617 523.288 390.886 521.385 395.338 515.422 400.107 509.033 408.399 503.083 414.499 501.665 417.641 500.935 431.841 500.298 446.054 500.243L471.893 500.146 466.723 497.297C459.414 493.267 430.718 484.03 425.503 484.03 418.632 484.03 413.568 481.527 413.568 478.134 413.568 474.699 418.035 471.606 434.238 463.833 448.569 456.954 451.958 453.84 451.958 447.556 451.958 443.606 451.198 442.319 448.172 441.171 442.876 439.158 409.452 439.369 400.34 441.471 393.87 442.965 392.461 442.88 390.464 440.884 388.342 438.762 388.533 437.521 392.6 426.963 400.395 406.719 404.708 379.57 404.708 350.747 404.708 330.741 402.801 325.116 393.39 317.358 383.456 309.17 378.355 308.311 339.845 308.347 300.997 308.38 299.749 308.64 284.745 319.654 273.339 328.026 272.642 326.9 272.145 299.306 271.783 279.239 272.031 276.372 274.273 274.733 276.27 273.272 308.62 272.877 426.296 272.877 560.222 272.877 576.021 273.118 578.102 275.198 580.022 277.118 580.419 281.637 580.398 301.407 580.385 314.546 579.794 326.216 579.081 327.341 577.157 330.379 572.063 328.532 561.855 321.098 544.431 308.408 547.591 309.053 502.902 309.053 464.588 309.053 462.795 309.18 456.929 312.318 453.57 314.114 448.767 317.638 446.261 320.148 438.842 327.564 438.057 333.441 440.775 361.198 442.083 374.538 443.703 386.436 444.374 387.638 445.307 389.306 446.577 388.15 449.742 382.75 454.958 373.853 460.292 368.855 464.571 368.855 466.399 368.855 473.113 371.346 479.493 374.392 490.541 379.668 491.786 379.927 505.856 379.875 517.743 379.83 521.963 379.204 527.513 376.656 534.357 373.516 546.46 363.746 546.46 361.364 546.46 360.682 527.137 359.928 503.518 359.69 464.196 359.294 460.415 359.033 458.638 356.604 455.819 352.743 457.372 348.959 465.386 340.193 478.088 326.294 498.319 320.412 516.984 325.194 528.614 328.173 537.522 333.005 548.22 342.136 552.841 346.082 561.15 351.823 566.678 354.894 572.207 357.966 577.254 361.201 577.891 362.083 581.254 366.731 571.662 417.129 561.986 445.636 550.55 479.32 532.99 511.485 512.413 536.446 501.737 549.393 478.185 572.599 470.581 577.659L464.837 581.482 417.972 581.482C379.955 581.482 370.789 581.098 369.419 579.448ZM293.977 358.125C291.954 357.082 290.077 355.079 289.807 353.674 288.997 349.467 305.206 334.59 316.82 328.883 325.965 324.389 328.463 323.819 339 323.819 349.5 323.819 352.045 324.395 360.986 328.796 371.893 334.166 381.066 342.49 384.071 349.744 385.692 353.658 385.609 354.625 383.466 356.769 381.273 358.964 376.086 359.301 339.318 359.639 307.668 359.929 296.771 359.566 293.977 358.125Z" fill="#FFFFFF" fill-rule="nonzero" fill-opacity="1" transform="matrix(1 0 0 1 454 1438)"/></g></g></g></g></g></svg>
